<?xml version="1.0" encoding="UTF-8"?>
<svg id="Layer_1" xmlns="http://www.w3.org/2000/svg" version="1.1" viewBox="0 0 44.59 43.74">
  <!-- Generator: Adobe Illustrator 29.3.1, SVG Export Plug-In . SVG Version: 2.1.0 Build 151)  -->
  <defs>
    <style>
      .st0 {
        fill: #fff;
      }
    </style>
  </defs>
  <path class="st0" d="M11.67,28.02c2.2,2.9,3.51,3.74,6.86,4.91,1.81.63,3.64,1.46,5.57.83,3.53-1.16,6.03-2.98,8.41-5.91,1.38-1.7,2.52-7.01,2.14-9.18-.18-1.03-1.96-5.13-2.66-5.81-.33-.31-.73-.17-1.06-.37-1.17-.72-.9-1.26-2.9-1.93-2.76-.92-8.55-1.17-11.28-.16-.68.25-1.11.76-1.61.98-.61.26-.93-.11-1.7.6-.83.77-2.77,4.69-3.2,5.92-.64,1.83-.4,6.1.33,7.87.19.46.89,1.96,1.1,2.25Z"/>
  <path d="M11.67,28.02c-.21-.28-.91-1.78-1.1-2.25-.73-1.77-.97-6.04-.33-7.87.43-1.23,2.37-5.15,3.2-5.92.77-.72,1.1-.34,1.7-.6.5-.21.92-.72,1.61-.98,2.73-1.01,8.52-.76,11.28.16,2.01.67,1.73,1.21,2.9,1.93.33.2.73.06,1.06.37.7.68,2.48,4.77,2.66,5.81.38,2.17-.76,7.48-2.14,9.18-2.38,2.93-4.88,4.76-8.41,5.91-1.93.63-3.76-.2-5.57-.83-3.36-1.18-4.66-2.01-6.86-4.91ZM16.53,12.91c-1.27.45-3.45,3.03-4.06,4.23-2.04,3.97-.63,7.04,1.49,10.53.86,1.42,3.04,3.09,4.57,3.66.83.31,2.21.13,3.08.38.19-.21-.25-.37-.41-.46-1.02-.58-2.1-.98-3.1-1.72-2.19-1.62-4.84-6.7-4.55-9.46.28-2.59,2.71-5.34,4.53-7.03.22-.2.39-.41.52-.67-.44-.03-.75.33-1.17.47-.32.1-.73.03-.9.08Z"/>
  <path class="st0" d="M16.53,12.91c.17-.06.58.01.9-.08.43-.13.74-.5,1.17-.47-.13.27-.3.47-.52.67-1.82,1.69-4.25,4.45-4.53,7.03-.3,2.76,2.35,7.83,4.55,9.46.99.74,2.08,1.13,3.1,1.72.16.09.6.25.41.46-.87-.25-2.25-.07-3.08-.38-1.53-.57-3.71-2.24-4.57-3.66-2.12-3.49-3.53-6.57-1.49-10.53.62-1.2,2.8-3.78,4.06-4.23Z"/>
</svg>