<?xml version="1.0" encoding="UTF-8"?>
<svg id="Layer_1" xmlns="http://www.w3.org/2000/svg" version="1.1" viewBox="0 0 44.59 43.74">
  <!-- Generator: Adobe Illustrator 29.3.1, SVG Export Plug-In . SVG Version: 2.1.0 Build 151)  -->
  <defs>
    <style>
      .st0 {
        fill: #fff;
      }
    </style>
  </defs>
  <path class="st0" d="M21.41,33.29c4.29.99,9.75-1.78,11.23-5.96s2.26-8.12-.26-12.13c-3.58-5.69-15.5-6.96-19.52-1.19-1.97,2.83-2.68,5.82-2.08,9.26.55,3.18,3.43,7.23,6.39,8.6.48.22.84.09,1.24.63.08.11,1.49.44,1.76.49.14.02.34-.17.43-.13.07.04.1.27.19.33.17.11.34-.12.47-.12.09,0,.1.21.15.22Z"/>
  <path d="M21.41,33.29s-.06-.22-.15-.22c-.13,0-.31.23-.47.12-.1-.06-.13-.29-.19-.33-.09-.05-.29.15-.43.13-.28-.05-1.68-.39-1.76-.49-.41-.54-.77-.41-1.24-.63-2.95-1.37-5.83-5.42-6.39-8.6-.6-3.44.11-6.43,2.08-9.26,4.02-5.77,15.95-4.49,19.52,1.19,2.52,4.01,1.74,7.95.26,12.13s-6.94,6.95-11.23,5.96ZM13.3,17.14c-.79.88-1.44,1.04-1.83,2.3-1.1,3.52,1.66,8.83,4.59,10.87.95.66,3.99,2.13,5.08,1.75.84-.29,1.85-1.59,2.41-2.28,1.17-4.73,2.86-8.93,2.07-13.91-.15-.92-.94-3.6-1.64-4.16-1.75-1.38-5.74-.45-7.61.42-2.28,1.06-3.37,2.84-4.35,5.06l1.27-.05Z"/>
  <path class="st0" d="M13.3,17.14l-1.27.05c.98-2.23,2.07-4.01,4.35-5.06,1.87-.87,5.86-1.8,7.61-.42.71.56,1.5,3.24,1.64,4.16.79,4.98-.9,9.18-2.07,13.91-.57.69-1.57,1.98-2.41,2.28-1.1.38-4.13-1.08-5.08-1.75-2.93-2.04-5.69-7.35-4.59-10.87.39-1.26,1.04-1.42,1.83-2.3Z"/>
</svg>