<?xml version="1.0" encoding="UTF-8"?>
<svg id="Layer_1" xmlns="http://www.w3.org/2000/svg" version="1.1" viewBox="0 0 44.59 43.74">
  <!-- Generator: Adobe Illustrator 29.3.1, SVG Export Plug-In . SVG Version: 2.1.0 Build 151)  -->
  <defs>
    <style>
      .st0 {
        fill: #fff;
      }
    </style>
  </defs>
  <path class="st0" d="M11.03,23.83c.29,3.12,2.34,7.03,5.41,8.25,3.98,1.59,14.84-.53,16.46-5.06,1.71-4.77.25-8.76-2.64-12.57-1.03-1.35-.95-1.53-2.67-2.26-3.51-1.49-7.82-1.41-11.27.22-4.26,2.01-5.7,6.96-5.29,11.41Z"/>
  <path d="M11.03,23.83c-.41-4.45,1.03-9.39,5.29-11.41,3.45-1.63,7.76-1.71,11.27-.22,1.72.73,1.64.91,2.67,2.26,2.89,3.8,4.34,7.79,2.64,12.57-1.62,4.53-12.48,6.64-16.46,5.06-3.07-1.22-5.12-5.13-5.41-8.25ZM24.94,13.51c-.57-.1-.81-.78-1.31-1.02s-2.46-.71-2.95-.65c-.93.13-1.85.14-2.81.43-5.07,1.58-6.75,6.53-6.31,11.44.38,4.19,3.13,8.04,7.53,8.38,6.6.5,12.2-2.14,12.47-9.36.04-1.12-.14-.92-.43-1.7-.14-.38-.03-.71-.11-1.01-.11-.37-2.66-4.85-2.89-5.08-.58-.57-2.52-1.78-3.34-2.08-.13-.05-.46-.19-.43.07l.56.56Z"/>
  <path class="st0" d="M24.94,13.51l-.56-.56c-.03-.26.29-.12.43-.07.82.3,2.76,1.51,3.34,2.08.23.22,2.78,4.7,2.89,5.08.08.3-.03.63.11,1.01.29.78.47.58.43,1.7-.27,7.22-5.87,9.86-12.47,9.36-4.41-.34-7.15-4.19-7.53-8.38-.45-4.9,1.24-9.86,6.31-11.44.96-.3,1.88-.3,2.81-.43.49-.07,2.48.42,2.95.65s.74.92,1.31,1.02Z"/>
</svg>