<?xml version="1.0" encoding="UTF-8"?>
<svg id="Layer_1" xmlns="http://www.w3.org/2000/svg" version="1.1" viewBox="0 0 44.59 43.74">
  <!-- Generator: Adobe Illustrator 29.3.1, SVG Export Plug-In . SVG Version: 2.1.0 Build 151)  -->
  <defs>
    <style>
      .st0 {
        fill: #fff;
      }
    </style>
  </defs>
  <path class="st0" d="M13.47,13.62c-2.26,2.68-3.92,8.01-2.84,11.42,2.93,9.24,15.95,11.17,22.07,4.06,2.35-2.73,1.86-9.34.25-12.36-1.35-2.53-2.59-3.86-4.97-5.39-.31-.2-1.16-.7-1.48-.75-.36-.06-.54.37-.88.39-.52.03-1.9-.54-2.57-.61-2.9-.31-7.65.95-9.57,3.23Z"/>
  <path d="M13.47,13.62c1.92-2.28,6.67-3.54,9.57-3.23.67.07,2.05.64,2.57.61.34-.02.52-.45.88-.39.31.05,1.16.55,1.48.75,2.38,1.53,3.62,2.86,4.97,5.39,1.61,3.01,2.1,9.63-.25,12.36-6.12,7.1-19.14,5.18-22.07-4.06-1.08-3.41.59-8.74,2.84-11.42ZM15.06,13.14c-4.27,3.68-5.09,10.53-1.72,15.08,4.18,5.64,13.8,5.69,18.4.57,2.19-2.44,2.01-7.75.92-10.64-.92-2.43-2.25-4.14-4.48-5.4-.21-.12-.37-.38-.51-.45-.47-.23.17.7-.31.48-.2-.09-.47-.54-.73-.71-2.57-1.63-9.31-.86-11.57,1.08Z"/>
  <path class="st0" d="M15.06,13.14c2.26-1.94,9-2.71,11.57-1.08.26.16.53.62.73.71.48.22-.15-.71.31-.48.14.07.3.33.51.45,2.23,1.26,3.56,2.97,4.48,5.4,1.09,2.9,1.27,8.2-.92,10.64-4.6,5.12-14.22,5.07-18.4-.57-3.37-4.55-2.56-11.4,1.72-15.08Z"/>
</svg>